<svg width="30" height="30" viewBox="0 0 30 30" fill="none" xmlns="http://www.w3.org/2000/svg">
<path d="M12.3598 12.585C11.5048 12.585 10.8298 13.335 10.8298 14.25C10.8298 15.165 11.5198 15.915 12.3598 15.915C13.2148 15.915 13.8898 15.165 13.8898 14.25C13.9048 13.335 13.2148 12.585 12.3598 12.585ZM17.8348 12.585C16.9798 12.585 16.3048 13.335 16.3048 14.25C16.3048 15.165 16.9948 15.915 17.8348 15.915C18.6898 15.915 19.3648 15.165 19.3648 14.25C19.3648 13.335 18.6898 12.585 17.8348 12.585Z" fill="white"/>
<path d="M25.1249 0H5.02495C3.32995 0 1.94995 1.38 1.94995 3.09V23.37C1.94995 25.08 3.32995 26.46 5.02495 26.46H22.0349L21.2399 23.685L23.1599 25.47L24.9749 27.15L28.1999 30V3.09C28.1999 1.38 26.8199 0 25.1249 0ZM19.3349 19.59C19.3349 19.59 18.7949 18.945 18.3449 18.375C20.3099 17.82 21.0599 16.59 21.0599 16.59C20.4449 16.995 19.8599 17.28 19.3349 17.475C18.5849 17.79 17.8649 18 17.1599 18.12C15.7199 18.39 14.3999 18.315 13.2749 18.105C12.4199 17.94 11.6849 17.7 11.07 17.46C10.7249 17.325 10.3499 17.16 9.97495 16.95C9.92995 16.92 9.88495 16.905 9.83995 16.875C9.80995 16.86 9.79495 16.845 9.77995 16.83C9.50995 16.68 9.35995 16.575 9.35995 16.575C9.35995 16.575 10.08 17.775 11.985 18.345C11.535 18.915 10.9799 19.59 10.9799 19.59C7.66495 19.485 6.40495 17.31 6.40495 17.31C6.40495 12.48 8.56495 8.565 8.56495 8.565C10.7249 6.945 12.7799 6.99 12.7799 6.99L12.9299 7.17C10.2299 7.95 8.98495 9.135 8.98495 9.135C8.98495 9.135 9.31495 8.955 9.86995 8.7C11.4749 7.995 12.7499 7.8 13.2749 7.755C13.3649 7.74 13.4399 7.725 13.5299 7.725C14.4449 7.605 15.4799 7.575 16.5599 7.695C17.9849 7.86 19.5149 8.28 21.0749 9.135C21.0749 9.135 19.8899 8.01 17.3399 7.23L17.5499 6.99C17.5499 6.99 19.6049 6.945 21.7649 8.565C21.7649 8.565 23.9249 12.48 23.9249 17.31C23.9249 17.31 22.6499 19.485 19.3349 19.59Z" fill="white"/>
</svg>
