<svg width="68" height="76" viewBox="0 0 68 76" fill="none" xmlns="http://www.w3.org/2000/svg">
<circle cx="34.1708" cy="37.561" r="20.122" stroke="white" stroke-width="2"/>
<path d="M49.7842 25.1582C47.941 26.8964 45.6263 28.306 43.0008 29.289C40.3753 30.272 37.502 30.8048 34.5808 30.8505C31.6595 30.8961 28.7603 30.4534 26.0848 29.5533C23.4092 28.6531 21.0215 27.317 19.0875 25.6378" stroke="white" stroke-width="2"/>
<path d="M50.0727 51.324C48.2123 49.5645 45.8331 48.1365 43.1133 47.147C40.3935 46.1576 37.4036 45.6322 34.3677 45.6105C31.3318 45.5887 28.3284 46.071 25.5828 47.0212C22.8371 47.9715 20.4202 49.365 18.5133 51.0975" stroke="white" stroke-width="2"/>
<path d="M34.1707 17.439V57.6829" stroke="white" stroke-width="2"/>
<path d="M54.2927 37.561H14.0488" stroke="white" stroke-width="2"/>
<path d="M23.031 55.7845C23.6206 55.6617 23.9717 55.0453 23.6864 54.5149C22.9831 53.2072 21.8506 52.0582 20.3919 51.1876C18.5581 50.0932 16.3113 49.5 13.9999 49.5C11.6885 49.5 9.44166 50.0932 7.60789 51.1876C6.14919 52.0582 5.01671 53.2072 4.31335 54.5149C4.02805 55.0453 4.37919 55.6617 4.96881 55.7845L5.83903 55.9659C11.2218 57.0877 16.778 57.0877 22.1607 55.9659L23.031 55.7845Z" fill="url(#paint0_linear_11_88)"/>
<ellipse cx="14.0001" cy="41.3333" rx="5.83333" ry="5.83333" fill="url(#paint1_linear_11_88)"/>
<path d="M43.031 63.7845C43.6206 63.6617 43.9717 63.0453 43.6864 62.5149C42.9831 61.2072 41.8506 60.0582 40.3919 59.1876C38.5581 58.0932 36.3113 57.5 33.9999 57.5C31.6885 57.5 29.4417 58.0932 27.6079 59.1876C26.1492 60.0582 25.0167 61.2072 24.3134 62.5149C24.0281 63.0453 24.3792 63.6617 24.9688 63.7845L25.839 63.9659C31.2218 65.0877 36.778 65.0877 42.1607 63.9659L43.031 63.7845Z" fill="url(#paint2_linear_11_88)"/>
<ellipse cx="34.0001" cy="49.3333" rx="5.83333" ry="5.83333" fill="url(#paint3_linear_11_88)"/>
<path d="M63.031 53.7845C63.6206 53.6617 63.9717 53.0453 63.6864 52.5149C62.9831 51.2072 61.8506 50.0582 60.3919 49.1876C58.5581 48.0932 56.3113 47.5 53.9999 47.5C51.6885 47.5 49.4417 48.0932 47.6079 49.1876C46.1492 50.0582 45.0167 51.2072 44.3134 52.5149C44.0281 53.0453 44.3792 53.6617 44.9688 53.7845L45.839 53.9659C51.2218 55.0877 56.778 55.0877 62.1607 53.9659L63.031 53.7845Z" fill="url(#paint4_linear_11_88)"/>
<ellipse cx="54.0001" cy="39.3333" rx="5.83333" ry="5.83333" fill="url(#paint5_linear_11_88)"/>
<defs>
<linearGradient id="paint0_linear_11_88" x1="13.9999" y1="49.5" x2="13.9999" y2="57.6667" gradientUnits="userSpaceOnUse">
<stop stop-color="#FFEF04"/>
<stop offset="1" stop-color="#FF9223"/>
</linearGradient>
<linearGradient id="paint1_linear_11_88" x1="14.0001" y1="35.5" x2="14.0001" y2="47.1667" gradientUnits="userSpaceOnUse">
<stop stop-color="#FFEF04"/>
<stop offset="1" stop-color="#FF9223"/>
</linearGradient>
<linearGradient id="paint2_linear_11_88" x1="33.9999" y1="57.5" x2="33.9999" y2="65.6667" gradientUnits="userSpaceOnUse">
<stop stop-color="#FFEF04"/>
<stop offset="1" stop-color="#FF9223"/>
</linearGradient>
<linearGradient id="paint3_linear_11_88" x1="34.0001" y1="43.5" x2="34.0001" y2="55.1667" gradientUnits="userSpaceOnUse">
<stop stop-color="#FFEF04"/>
<stop offset="1" stop-color="#FF9223"/>
</linearGradient>
<linearGradient id="paint4_linear_11_88" x1="53.9999" y1="47.5" x2="53.9999" y2="55.6667" gradientUnits="userSpaceOnUse">
<stop stop-color="#FFEF04"/>
<stop offset="1" stop-color="#FF9223"/>
</linearGradient>
<linearGradient id="paint5_linear_11_88" x1="54.0001" y1="33.5" x2="54.0001" y2="45.1667" gradientUnits="userSpaceOnUse">
<stop stop-color="#FFEF04"/>
<stop offset="1" stop-color="#FF9223"/>
</linearGradient>
</defs>
</svg>
