<svg width="83" height="82" viewBox="0 0 83 82" fill="none" xmlns="http://www.w3.org/2000/svg">
<g filter="url(#filter0_d_209_893)">
<circle cx="41.1423" cy="41" r="24" fill="url(#paint0_linear_209_893)"/>
</g>
<g opacity="0.3" filter="url(#filter1_d_209_893)">
<path d="M71.1423 41C71.1423 57.5685 57.7109 71 41.1423 71C24.5738 71 11.1423 57.5685 11.1423 41C11.1423 24.4315 24.5738 11 41.1423 11C57.7109 11 71.1423 24.4315 71.1423 41ZM12.1461 41C12.1461 57.0142 25.1282 69.9962 41.1423 69.9962C57.1565 69.9962 70.1386 57.0142 70.1386 41C70.1386 24.9858 57.1565 12.0038 41.1423 12.0038C25.1282 12.0038 12.1461 24.9858 12.1461 41Z" fill="url(#paint1_linear_209_893)"/>
</g>
<path d="M47.861 41.0066L39.4102 34.914C38.881 34.5326 38.1423 34.9107 38.1423 35.563V46.8558C38.1423 47.5082 38.881 47.8863 39.4102 47.5048L47.861 41.4122C47.9994 41.3124 47.9994 41.1064 47.861 41.0066Z" fill="black"/>
<defs>
<filter id="filter0_d_209_893" x="6.14233" y="6" width="70" height="70" filterUnits="userSpaceOnUse" color-interpolation-filters="sRGB">
<feFlood flood-opacity="0" result="BackgroundImageFix"/>
<feColorMatrix in="SourceAlpha" type="matrix" values="0 0 0 0 0 0 0 0 0 0 0 0 0 0 0 0 0 0 127 0" result="hardAlpha"/>
<feMorphology radius="4" operator="dilate" in="SourceAlpha" result="effect1_dropShadow_209_893"/>
<feOffset/>
<feGaussianBlur stdDeviation="3.5"/>
<feComposite in2="hardAlpha" operator="out"/>
<feColorMatrix type="matrix" values="0 0 0 0 1 0 0 0 0 1 0 0 0 0 1 0 0 0 0.25 0"/>
<feBlend mode="normal" in2="BackgroundImageFix" result="effect1_dropShadow_209_893"/>
<feBlend mode="normal" in="SourceGraphic" in2="effect1_dropShadow_209_893" result="shape"/>
</filter>
<filter id="filter1_d_209_893" x="0.142334" y="0" width="82" height="82" filterUnits="userSpaceOnUse" color-interpolation-filters="sRGB">
<feFlood flood-opacity="0" result="BackgroundImageFix"/>
<feColorMatrix in="SourceAlpha" type="matrix" values="0 0 0 0 0 0 0 0 0 0 0 0 0 0 0 0 0 0 127 0" result="hardAlpha"/>
<feMorphology radius="4" operator="dilate" in="SourceAlpha" result="effect1_dropShadow_209_893"/>
<feOffset/>
<feGaussianBlur stdDeviation="3.5"/>
<feComposite in2="hardAlpha" operator="out"/>
<feColorMatrix type="matrix" values="0 0 0 0 1 0 0 0 0 1 0 0 0 0 1 0 0 0 0.25 0"/>
<feBlend mode="normal" in2="BackgroundImageFix" result="effect1_dropShadow_209_893"/>
<feBlend mode="normal" in="SourceGraphic" in2="effect1_dropShadow_209_893" result="shape"/>
</filter>
<linearGradient id="paint0_linear_209_893" x1="17.1423" y1="41" x2="65.1423" y2="41" gradientUnits="userSpaceOnUse">
<stop stop-color="#FFEF04"/>
<stop offset="1" stop-color="#FF9124"/>
</linearGradient>
<linearGradient id="paint1_linear_209_893" x1="11.1423" y1="41" x2="71.1423" y2="41" gradientUnits="userSpaceOnUse">
<stop stop-color="white"/>
<stop offset="1" stop-color="#B2B2B2"/>
</linearGradient>
</defs>
</svg>
