<svg width="153" height="42" viewBox="0 0 153 42" fill="none" xmlns="http://www.w3.org/2000/svg">
<path fill-rule="evenodd" clip-rule="evenodd" d="M45.9737 6.56064H34.3873V0H49.6007H64.8142V6.56064H53.127V23.0263L45.9737 25V6.56064Z" fill="white"/>
<path d="M14.6004 9.44335V15.4573H23.8277C24.1988 15.4573 24.4996 15.7518 24.4996 16.1152V18.1909H7.05259V6.51094H31.384V2.63158C31.384 1.1782 30.1807 0 28.6962 0H2.68778C1.20336 0 0 1.1782 0 2.63158V22.3684C0 23.8218 1.20336 25 2.68778 25H28.6962C30.1807 25 31.384 23.8218 31.384 22.3684V12.0749C31.384 10.6215 30.1807 9.44335 28.6962 9.44335H14.6004Z" fill="white"/>
<path fill-rule="evenodd" clip-rule="evenodd" d="M67.6159 25L74.6684 23.2456V19.9426L91.9474 17.7496V20.8921L99 18.9184V2.63158C99 1.1782 97.7966 0 96.3122 0H70.3037C68.8193 0 67.6159 1.1782 67.6159 2.63158V25ZM74.6684 13.8293V7.21853C74.6684 6.85519 74.9693 6.56064 75.3404 6.56064H91.2755C91.6466 6.56064 91.9474 6.85519 91.9474 7.21853V11.6363L74.6684 13.8293Z" fill="white"/>
<path d="M115.549 0H101.837L120.246 13.8225C93.2765 32.5361 61.8878 39.9992 49.6404 41.4675C86.6098 39.1587 115.852 24.835 126.307 18.3794L136.231 25.7463H149.791L134.034 13.8225C137.549 11.696 148.175 3.67081 152.973 0H138.503L127.291 8.8859L115.549 0Z" fill="#FFF205"/>
</svg>
