<svg width="22" height="22" viewBox="0 0 22 22" fill="none" xmlns="http://www.w3.org/2000/svg">
<path d="M15.7126 17.9013L17.3601 19.5488C17.5633 19.3913 17.7621 19.225 17.9575 19.052L16.3128 17.4072C16.1166 17.5802 15.9162 17.7435 15.7126 17.9013Z" fill="#D9A921"/>
<path d="M14.0586 18.9832L15.7053 20.63C15.9386 20.5038 16.17 20.3715 16.3975 20.2276L14.7496 18.5801C14.5221 18.7236 14.2919 18.8571 14.0586 18.9832Z" fill="#D9A921"/>
<path d="M12.1482 19.8088L13.7945 21.4551C14.0627 21.3669 14.33 21.2702 14.5947 21.1607L12.9487 19.5151C12.6841 19.6242 12.4171 19.721 12.1482 19.8088Z" fill="#D9A921"/>
<path d="M9.39038 20.3343L11.0383 21.9822C11.3675 21.9636 11.6983 21.9292 12.0292 21.8789L10.3805 20.2302C10.0497 20.2801 9.71965 20.3161 9.39038 20.3343Z" fill="#D9A921"/>
<path d="M6.34644 20.0261L7.99857 21.6783C8.43966 21.7967 8.8908 21.8822 9.34892 21.9348L7.69755 20.283C7.23905 20.2296 6.78791 20.1453 6.34644 20.0261Z" fill="#D9A921"/>
<path d="M14.68 8.63011C14.5875 6.37786 12.9284 5.50807 10.386 5.50536C10.2734 5.50536 10.1627 5.50884 10.054 5.51619C9.26196 5.56843 8.5245 5.44268 7.99133 5.08207C7.7762 4.93621 7.60441 4.78337 7.49569 4.62358C7.44655 4.55084 7.30997 4.60113 7.30261 4.69399C7.29023 4.85418 7.28172 5.04183 7.28482 5.24845C7.29565 6.03118 7.21788 5.91472 6.7412 6.65335C6.47771 7.06193 6.26722 7.52004 6.11052 8.01259C5.76384 8.1542 5.48178 8.45793 5.40092 8.83169L5.29413 9.32733C5.1974 9.77538 5.41098 10.1971 5.79364 10.3848C5.85206 11.4999 6.26413 12.4973 7.25386 13.1957L7.12966 13.8697C7.09755 14.0439 6.9718 14.1801 6.80659 14.2207L4.49669 14.7836C3.89619 14.9601 3.43692 15.4882 3.28525 16.1727L3.24927 16.3356C3.36728 16.4741 3.48258 16.6149 3.61336 16.7453C4.94513 18.0775 6.79575 18.8111 8.82436 18.8111C10.5527 18.8111 12.2973 18.2856 13.8442 17.3288L11.2093 15.2955C11.0368 15.162 10.9458 14.9581 10.9729 14.7662L11.0785 14.0086C12.5573 13.7483 13.5331 12.8255 14.1019 11.5556C14.7651 11.4794 15.3002 11.0445 15.3563 10.4564L15.4178 9.80866C15.4646 9.31921 15.1543 8.87503 14.68 8.63011Z" fill="#FFD949"/>
<path d="M16.8821 16.8821C12.9692 20.795 7.17591 21.4528 3.39844 18.6012C3.6302 18.908 3.88208 19.2032 4.16028 19.4814C7.86192 23.1831 14.2929 22.7544 18.5238 18.5238C22.7544 14.2929 23.1831 7.86192 19.481 4.16028C19.2032 3.88208 18.908 3.6302 18.6012 3.39844C21.4528 7.17591 20.795 12.9692 16.8821 16.8821Z" fill="#EFBE09"/>
<path d="M17.8399 2.51874C21.5419 6.22076 21.1132 12.6513 16.8823 16.8823C12.6513 21.1132 6.22076 21.5419 2.51874 17.8399C-1.18329 14.1379 -0.754584 7.7073 3.47636 3.47636C7.7073 -0.754584 14.1379 -1.18329 17.8399 2.51874Z" fill="#FFF205"/>
<path d="M8.82391 18.8109C6.7953 18.8109 4.94506 18.0774 3.6129 16.7456C0.520272 13.653 0.94975 8.19122 4.57052 4.57084C6.49157 2.64941 9.02975 1.54785 11.5343 1.54785C13.5629 1.54785 15.4131 2.28145 16.7453 3.61322C19.8379 6.70585 19.4084 12.1676 15.7876 15.788C13.867 17.7086 11.3288 18.8109 8.82391 18.8109Z" fill="url(#paint0_linear_210_898)"/>
<path d="M17.1445 16.5975L18.7913 18.2443C18.9696 18.0547 19.1418 17.8616 19.3055 17.6643L17.6615 16.0203C17.4978 16.2172 17.3225 16.408 17.1445 16.5975Z" fill="#D9A921"/>
<path d="M18.3633 15.0801L20.0096 16.7265C20.159 16.5059 20.3006 16.2823 20.4333 16.0559L18.7904 14.4131C18.6573 14.6394 18.5122 14.8607 18.3633 15.0801Z" fill="#D9A921"/>
<path d="M19.3477 13.3285L20.9959 14.9764C21.1124 14.7203 21.2176 14.4614 21.314 14.2006L19.668 12.5547C19.5717 12.8151 19.4637 13.0728 19.3477 13.3285Z" fill="#D9A921"/>
<path d="M20.1516 10.8495L21.7968 12.4947C21.8595 12.1782 21.9078 11.8613 21.9411 11.5448L20.294 9.89771C20.2607 10.215 20.2139 10.5323 20.1516 10.8495Z" fill="#D9A921"/>
<path d="M21.9836 9.94551C21.9616 9.52803 21.9155 9.11441 21.8405 8.70815L20.1841 7.05176C20.2611 7.46382 20.3203 7.88054 20.3423 8.30421L21.9836 9.94551Z" fill="#D9A921"/>
<mask id="mask0_210_898" style="mask-type:alpha" maskUnits="userSpaceOnUse" x="1" y="1" width="18" height="18">
<path d="M8.82391 18.8112C6.7953 18.8112 4.94506 18.0776 3.6129 16.7458C0.520272 13.6532 0.94975 8.19147 4.57052 4.57108C6.49157 2.64965 9.02975 1.5481 11.5343 1.5481C13.5629 1.5481 15.4131 2.28169 16.7453 3.61346C19.8379 6.70609 19.4084 12.1678 15.7876 15.7882C13.867 17.7089 11.3288 18.8112 8.82391 18.8112Z" fill="url(#paint1_linear_210_898)"/>
</mask>
<g mask="url(#mask0_210_898)">
<path d="M7.37271 6.51855H3.8046L8.59493 10.321C1.57701 15.469 -6.59085 17.522 -9.77783 17.926C-0.157761 17.2908 7.45156 13.3505 10.172 11.5746L12.7544 13.6012H16.2831L12.1827 10.321C13.0974 9.73603 15.8625 7.52837 17.1111 6.51855H13.3458L10.4283 8.963L7.37271 6.51855Z" fill="#FFF205"/>
</g>
<defs>
<linearGradient id="paint0_linear_210_898" x1="10.1791" y1="1.54785" x2="10.1791" y2="18.8109" gradientUnits="userSpaceOnUse">
<stop stop-color="#F2BC12"/>
<stop offset="1" stop-color="#F2BC12"/>
</linearGradient>
<linearGradient id="paint1_linear_210_898" x1="10.1791" y1="1.5481" x2="10.1791" y2="18.8112" gradientUnits="userSpaceOnUse">
<stop stop-color="#F2BC12"/>
<stop offset="1" stop-color="#F2BC12"/>
</linearGradient>
</defs>
</svg>
