<svg width="30" height="30" viewBox="0 0 30 30" fill="none" xmlns="http://www.w3.org/2000/svg">
<path d="M29.7012 9.05273C29.7012 9.05273 29.4082 6.98438 28.5059 6.07617C27.3633 4.88086 26.0859 4.875 25.5 4.80469C21.3047 4.5 15.0059 4.5 15.0059 4.5H14.9941C14.9941 4.5 8.69531 4.5 4.5 4.80469C3.91406 4.875 2.63672 4.88086 1.49414 6.07617C0.591797 6.98438 0.304688 9.05273 0.304688 9.05273C0.304688 9.05273 0 11.4844 0 13.9102V16.1836C0 18.6094 0.298828 21.041 0.298828 21.041C0.298828 21.041 0.591797 23.1094 1.48828 24.0176C2.63086 25.2129 4.13086 25.1719 4.79883 25.3008C7.20117 25.5293 15 25.5996 15 25.5996C15 25.5996 21.3047 25.5879 25.5 25.2891C26.0859 25.2188 27.3633 25.2129 28.5059 24.0176C29.4082 23.1094 29.7012 21.041 29.7012 21.041C29.7012 21.041 30 18.6152 30 16.1836V13.9102C30 11.4844 29.7012 9.05273 29.7012 9.05273ZM11.9004 18.9434V10.5117L20.0039 14.7422L11.9004 18.9434Z" fill="white"/>
</svg>
